<?xml version="1.0" standalone="no"?>

<svg version="1.0" xmlns="http://www.w3.org/2000/svg" width="4224.000000pt" height="2304.000000pt" viewBox="0 0 4224.000000 2304.000000" preserveAspectRatio="xMidYMid meet">

<g transform="translate(0.000000,2304.000000) scale(0.100000,-0.100000)" fill="currentColor" stroke="none">
<path d="M24575 19444 c-16 -2 -82 -9 -145 -15 -63 -6 -149 -20 -190 -31 -41&#xA;-10 -102 -25 -135 -33 -144 -32 -460 -128 -481 -146 -6 -5 -34 -16 -61 -24&#xA;-28 -8 -62 -24 -76 -35 -14 -11 -31 -20 -37 -20 -22 0 -223 -113 -340 -190&#xA;-233 -155 -316 -222 -548 -445 -259 -249 -372 -365 -372 -380 0 -8 -9 -19 -20&#xA;-25 -23 -12 -29 -18 -170 -148 -202 -188 -350 -356 -350 -399 0 -26 -12 -40&#xA;-35 -44 -11 -2 -28 -19 -37 -38 -9 -19 -35 -53 -58 -76 -22 -22 -40 -46 -40&#xA;-51 0 -6 -9 -19 -20 -29 -11 -10 -20 -23 -20 -28 0 -16 -105 -170 -135 -197&#xA;-30 -28 -56 -75 -75 -135 -6 -22 -26 -71 -43 -108 l-32 -68 -37 6 c-42 7 -118&#xA;-25 -118 -50 0 -8 -18 -22 -40 -31 -26 -10 -40 -23 -40 -34 0 -20 -19 -30 -58&#xA;-30 -29 0 -189 -63 -302 -120 -41 -20 -98 -45 -127 -54 -28 -10 -62 -25 -75&#xA;-35 -13 -10 -42 -28 -65 -40 -23 -11 -46 -28 -50 -36 -5 -8 -58 -35 -118 -59&#xA;-154 -62 -278 -116 -290 -126 -5 -4 -93 -50 -195 -101 -102 -51 -198 -102&#xA;-215 -114 -47 -33 -134 -85 -144 -85 -10 0 -119 -65 -186 -110 -22 -15 -68&#xA;-41 -101 -59 -34 -18 -79 -49 -100 -68 -22 -20 -55 -42 -74 -50 -52 -23 -180&#xA;-106 -226 -149 -23 -21 -60 -47 -82 -58 -68 -35 -182 -117 -204 -146 -11 -16&#xA;-41 -42 -67 -58 -41 -27 -84 -62 -132 -107 -9 -8 -19 -15 -23 -15 -14 0 -109&#xA;-73 -176 -136 -36 -33 -90 -72 -120 -87 -30 -14 -75 -40 -100 -57 -25 -16 -50&#xA;-30 -56 -30 -21 0 -48 -41 -48 -74 -1 -19 -4 -32 -8 -30 -4 3 -19 -3 -33 -12&#xA;-19 -12 -24 -22 -19 -37 5 -17 3 -19 -16 -14 -27 7 -75 -25 -170 -113 -36 -33&#xA;-69 -60 -75 -60 -5 0 -30 -21 -55 -46 -25 -25 -89 -84 -143 -131 -123 -108&#xA;-212 -194 -226 -222 -7 -11 -20 -21 -31 -21 -31 0 -50 -11 -50 -30 0 -16 -52&#xA;-64 -151 -140 -18 -14 -38 -31 -45 -37 -7 -7 -16 -13 -20 -13 -4 0 -22 -15&#xA;-39 -32 -47 -50 -103 -97 -175 -151 -36 -26 -70 -54 -75 -61 -6 -8 -24 -22&#xA;-41 -32 -30 -19 -213 -214 -268 -287 -62 -81 -10 -44 121 88 76 75 149 145&#xA;162 153 22 15 25 15 41 -6 l18 -21 28 29 c16 16 34 30 41 30 15 0 35 58 22 65&#xA;-31 20 27 85 76 85 37 0 80 41 92 88 6 25 48 72 64 72 5 0 9 -9 9 -19 0 -13&#xA;-8 -21 -22 -23 -17 -2 -23 -9 -22 -28 1 -14 -2 -27 -6 -30 -4 -3 -26 -41 -50&#xA;-85 -24 -44 -50 -88 -58 -98 -14 -16 -14 -19 2 -30 30 -22 18 -36 -209 -231&#xA;-21 -17 -38 -25 -46 -20 -7 4 -23 8 -36 9 -46 2 -73 65 -28 65 18 0 20 -26 3&#xA;-33 -7 -2 -11 -7 -8 -10 3 -3 18 5 35 18 34 28 31 35 -23 42 -35 5 -41 2 -53&#xA;-20 -35 -65 -125 -186 -150 -201 -15 -9 -38 -33 -50 -54 -13 -20 -28 -40 -33&#xA;-44 -6 -4 -8 -9 -6 -12 3 -2 32 15 64 40 60 44 84 55 69 31 -32 -53 -75 -100&#xA;-115 -126 -26 -17 -66 -54 -90 -82 -45 -53 -86 -78 -98 -59 -4 7 -13 3 -25&#xA;-10 -12 -13 -14 -20 -5 -20 7 0 -27 -38 -76 -85 -48 -47 -89 -92 -90 -101 -3&#xA;-18 -109 -121 -188 -182 -40 -31 -60 -41 -65 -33 -6 9 -11 8 -21 -4 -10 -12&#xA;-10 -15 5 -15 14 0 15 -3 5 -15 -7 -9 -21 -13 -35 -9 -25 6 -45 -24 -23 -37 9&#xA;-6 8 -13 -7 -28 -10 -12 -23 -20 -29 -19 -17 3 -56 -12 -56 -23 0 -5 -11 -9&#xA;-24 -9 -13 0 -27 -7 -30 -16 -5 -13 -2 -15 14 -11 40 10 20 -24 -67 -114 -299&#xA;-310 -534 -549 -542 -549 -4 0 -15 -13 -24 -30 -11 -17 -27 -30 -38 -30 -11 0&#xA;-24 -11 -31 -24 -6 -14 -24 -30 -40 -37 -31 -12 -138 -128 -138 -148 0 -19&#xA;-52 -89 -115 -156 -32 -33 -65 -76 -74 -95 -25 -52 -52 -90 -65 -90 -13 0 -86&#xA;-93 -86 -110 0 -6 -7 -22 -16 -35 -9 -13 -14 -30 -12 -36 4 -12 75 77 101 127&#xA;9 17 47 64 84 104 37 40 74 82 82 95 8 13 28 29 45 36 17 8 46 37 66 66 19 29&#xA;41 50 47 48 7 -2 21 4 30 14 10 10 37 30 61 45 43 27 54 46 27 46 -8 0 -15 2&#xA;-15 5 0 16 36 58 56 66 13 4 32 26 43 48 11 21 36 49 55 61 19 11 51 43 72 71&#xA;20 27 46 54 57 61 41 21 139 113 154 143 17 35 186 200 226 221 15 8 27 23 27&#xA;33 0 20 57 76 106 105 16 10 54 44 84 77 152 164 349 354 411 396 31 21 97 75&#xA;145 120 49 45 100 93 114 106 14 12 60 61 102 107 104 115 111 122 142 145 36&#xA;27 106 98 106 108 0 15 52 28 66 16 28 -23 67 4 192 130 129 130 202 192 202&#xA;173 0 -26 -35 -82 -51 -82 -28 0 -66 -41 -73 -77 -5 -30 -4 -32 13 -21 15 9&#xA;23 9 35 -1 11 -9 16 -10 16 -2 0 6 7 11 15 11 9 0 86 70 171 156 117 118 159&#xA;155 174 151 14 -3 38 13 85 59 36 35 65 66 65 69 0 13 -28 2 -60 -25 -19 -17&#xA;-43 -30 -53 -30 -11 0 -32 -11 -49 -25 -32 -27 -44 -30 -53 -16 -12 21 143&#xA;181 176 181 5 0 9 -11 9 -25 0 -14 4 -25 9 -25 12 0 51 54 51 72 1 16 30 56&#xA;30 40 0 -7 -6 -21 -12 -32 -10 -16 -10 -22 2 -34 13 -13 20 -12 60 15 24 16&#xA;48 35 51 41 12 19 -22 37 -59 31 -32 -6 -33 -5 -21 19 6 14 30 41 53 60 42 36&#xA;135 82 144 73 3 -3 -7 -18 -21 -33 -26 -27 -36 -62 -18 -62 4 0 20 9 34 20 14&#xA;11 29 20 35 20 5 0 28 15 52 33 24 17 55 41 70 52 15 11 55 43 88 70 32 28 80&#xA;66 105 85 52 39 57 50 25 50 l-22 0 20 21 c13 12 34 20 55 21 37 1 89 33 126&#xA;78 13 15 45 42 72 59 27 18 51 40 54 51 6 23 64 60 94 60 12 0 45 20 73 45 28&#xA;25 70 58 93 73 23 15 44 29 47 33 3 3 27 18 53 34 27 15 55 38 63 50 8 12 38&#xA;35 67 50 28 16 68 41 87 57 58 49 151 112 256 175 55 33 120 74 144 92 129 93&#xA;236 153 500 279 92 45 234 100 345 136 39 12 97 34 130 48 33 15 75 32 93 40&#xA;17 7 32 16 32 20 0 5 6 8 13 8 30 0 185 55 237 83 69 38 67 37 52 46 -8 5 6&#xA;10 37 14 27 3 58 10 68 16 10 5 61 26 113 46 52 19 149 63 215 96 66 33 129&#xA;60 140 60 11 0 40 8 65 18 40 15 49 16 76 3 28 -13 34 -12 96 22 40 23 68 45&#xA;71 58 5 16 11 19 29 14 66 -19 75 -18 81 3 5 22 31 28 42 11 3 -5 19 -10 36&#xA;-10 44 0 69 47 69 128 0 52 -4 69 -25 96 -15 20 -23 40 -19 50 8 20 54 22 54&#xA;1 0 -21 29 -19 68 5 34 21 38 39 22 87 -9 26 -7 36 22 82 18 29 59 82 90 118&#xA;53 62 85 126 103 208 4 17 31 54 66 89 32 33 59 62 59 66 0 3 14 19 31 36 17&#xA;16 37 43 45 59 8 17 37 57 65 90 48 57 119 186 119 216 0 28 36 79 75 107 22&#xA;16 47 42 55 58 8 16 27 47 42 68 16 21 28 47 28 56 0 19 78 130 91 130 5 0 16&#xA;16 25 35 9 19 19 35 23 35 13 0 71 56 71 69 0 15 8 25 108 130 46 49 90 98 98&#xA;110 8 11 20 21 26 21 6 0 32 19 57 43 26 23 60 54 76 68 17 14 40 37 52 50 56&#xA;63 229 204 326 266 40 25 101 65 137 88 84 54 111 69 190 99 61 23 94 37 210&#xA;88 25 11 96 45 159 75 71 35 134 58 170 63 31 5 97 15 146 23 201 33 267 38&#xA;435 29 153 -8 167 -8 192 10 15 10 40 18 55 18 59 0 332 -58 371 -79 12 -6 26&#xA;-10 30 -8 4 3 29 1 55 -3 26 -4 50 -3 52 1 6 9 -43 49 -61 49 -7 0 -30 10 -51&#xA;22 -65 37 -111 58 -128 58 -9 0 -44 11 -78 25 -59 23 -216 59 -225 51 -2 -2&#xA;-18 0 -35 6 -96 29 -391 54 -502 42z m-4315 -3674 c0 -5 -4 -10 -10 -10 -5 0&#xA;-10 5 -10 10 0 6 5 10 10 10 6 0 10 -4 10 -10z m-2780 -1249 c-6 -12 -17 -21&#xA;-25 -21 -21 0 -19 10 7 37 25 26 36 16 18 -16z m-190 -141 c0 -11 -40 -50 -53&#xA;-50 -4 0 1 14 13 30 21 30 40 39 40 20z m-110 -141 c0 -20 -33 -56 -131 -143&#xA;-24 -22 -63 -57 -87 -78 -35 -31 -40 -38 -23 -38 12 0 21 -5 21 -10 0 -20&#xA;-132 -140 -154 -140 -11 0 -43 -18 -71 -40 -30 -24 -52 -35 -56 -28 -11 18 14&#xA;69 54 109 40 40 97 74 97 58 0 -5 8 -4 19 2 11 7 16 20 14 30 -5 17 47 73 225&#xA;242 64 60 92 71 92 36z m-330 -274 c0 -8 -4 -15 -10 -15 -5 0 -10 7 -10 15 0&#xA;8 5 15 10 15 6 0 10 -7 10 -15z m404 -90 c-4 -8 -8 -15 -10 -15 -2 0 -4 7 -4&#xA;15 0 8 4 15 10 15 5 0 7 -7 4 -15z m-729 -174 c6 -10 -24 -45 -32 -37 -7 7 7&#xA;46 17 46 5 0 11 -4 15 -9z m365 -74 c0 -14 -28 -58 -44 -69 -5 -3 -15 -4 -23&#xA;-1 -7 3 -16 -2 -19 -11 -3 -9 -10 -13 -15 -10 -9 5 79 104 94 104 4 0 7 -6 7&#xA;-13z m-261 -59 c-8 -14 -14 -18 -17 -10 -4 13 17 46 25 38 3 -2 -1 -15 -8 -28z&#xA;m-29 -32 c0 -3 -4 -8 -10 -11 -5 -3 -10 -1 -10 4 0 6 5 11 10 11 6 0 10 -2 10&#xA;-4z m150 -94 c0 -13 -77 -72 -94 -72 -2 0 -2 9 1 20 3 11 12 20 19 20 8 0 14&#xA;5 14 10 0 6 10 15 23 20 29 11 37 12 37 2z"></path>
<path d="M26138 18983 c23 -9 12 -21 -28 -28 -36 -6 -67 -25 -41 -25 6 0 11&#xA;-6 11 -13 0 -12 42 -30 104 -45 44 -11 47 -35 5 -28 -19 3 -45 8 -59 10 -14 2&#xA;-33 8 -44 12 -14 5 -17 3 -14 -7 2 -8 19 -15 36 -17 18 -2 32 -8 32 -13 0 -6&#xA;-4 -7 -10 -4 -5 3 -18 1 -27 -4 -14 -8 -14 -10 -3 -11 15 0 174 -64 200 -80&#xA;39 -25 85 -39 157 -50 43 -7 87 -16 98 -20 46 -19 129 -31 280 -40 314 -19&#xA;589 -66 725 -124 47 -20 145 -62 219 -92 124 -51 374 -175 431 -214 14 -9 66&#xA;-37 115 -62 50 -25 120 -64 158 -86 37 -23 70 -42 73 -42 12 0 -48 71 -127&#xA;152 -43 44 -79 83 -81 87 -2 4 -25 19 -51 35 -27 15 -51 34 -54 42 -5 13 -105&#xA;84 -119 84 -3 0 -20 11 -37 24 -49 36 -161 89 -277 131 -58 20 -114 41 -125&#xA;46 -36 15 -229 72 -270 80 -22 4 -69 15 -105 24 -36 9 -114 27 -175 40 -60 12&#xA;-144 32 -185 44 -41 11 -87 21 -102 21 -15 0 -69 13 -120 29 -51 16 -120 36&#xA;-153 46 -33 9 -77 23 -98 31 -76 29 -268 74 -309 73 -24 0 -37 -3 -30 -6z"></path>
<path d="M25998 18903 c6 -2 18 -2 25 0 6 3 1 5 -13 5 -14 0 -19 -2 -12 -5z"></path>
<path d="M28048 18004 c-3 -3 -82 -10 -174 -15 -183 -11 -513 -55 -713 -96&#xA;-69 -14 -153 -29 -186 -34 -194 -29 -489 -100 -715 -171 -123 -39 -117 -58 18&#xA;-58 158 -1 274 -23 257 -50 -14 -22 146 -9 305 26 41 8 93 20 115 24 100 21&#xA;353 96 601 179 148 49 287 93 309 97 22 4 71 19 108 35 37 15 90 33 118 39 27&#xA;7 52 16 55 21 6 10 -89 13 -98 3z"></path>
<path d="M26135 17429 c-117 -42 -245 -110 -245 -130 0 -5 -20 -20 -45 -35&#xA;-124 -72 -324 -369 -325 -481 0 -17 -5 -35 -11 -38 -6 -4 -8 -14 -5 -22 4 -9&#xA;-1 -21 -10 -28 -10 -7 -17 -26 -17 -43 0 -18 -5 -29 -10 -25 -6 4 -8 -2 -5&#xA;-15 3 -12 1 -23 -6 -26 -7 -3 -7 -8 3 -14 11 -8 12 -14 4 -24 -6 -7 -13 -31&#xA;-16 -53 -3 -22 -10 -58 -15 -80 -13 -49 -32 -144 -41 -208 l-7 -47 23 22 c35&#xA;32 38 16 10 -54 -38 -95 -69 -340 -45 -363 3 -3 13 29 22 72 34 160 59 258 71&#xA;273 15 19 49 93 80 175 35 95 168 353 248 484 21 35 43 74 47 87 17 43 161&#xA;220 300 369 77 82 140 153 140 157 0 4 -20 5 -45 1 -51 -7 -58 4 -24 38 35 35&#xA;8 38 -76 8z"></path>
<path d="M25135 15400 c-7 -11 -3 -40 11 -100 16 -67 16 -78 -4 -96 -16 -15&#xA;-23 -41 -32 -123 -6 -58 -8 -126 -5 -153 4 -26 2 -78 -4 -115 -6 -38 -16 -142&#xA;-21 -233 -6 -91 -19 -208 -31 -260 -11 -52 -24 -120 -29 -150 -11 -61 -20&#xA;-100 -84 -345 -84 -322 -95 -361 -154 -535 -59 -176 -156 -442 -191 -528 -11&#xA;-26 -33 -81 -49 -122 -169 -421 -272 -605 -453 -805 -15 -16 -123 -143 -241&#xA;-280 -118 -138 -226 -263 -239 -277 -13 -15 -60 -68 -104 -118 -114 -129 -378&#xA;-415 -509 -550 -107 -111 -210 -220 -307 -325 -49 -54 -691 -682 -824 -807&#xA;-44 -41 -108 -96 -142 -123 -35 -26 -63 -52 -63 -56 0 -5 -24 -27 -52 -50 -55&#xA;-43 -362 -339 -352 -339 3 0 12 6 19 13 29 25 43 35 179 126 114 78 208 147&#xA;272 200 6 4 35 26 65 47 71 51 65 47 134 100 33 26 67 54 75 64 8 9 44 39 80&#xA;66 68 51 76 58 150 120 25 22 68 57 95 79 27 22 70 58 95 80 62 54 83 71 163&#xA;133 37 30 67 57 67 61 0 4 13 14 28 23 22 13 32 14 40 6 9 -9 34 13 99 83 49&#xA;51 156 164 239 249 84 85 180 188 214 228 34 39 68 75 76 80 25 14 208 196&#xA;298 297 50 55 147 161 217 235 138 146 204 224 264 310 113 161 153 222 192&#xA;298 24 46 56 103 72 125 32 47 48 102 32 111 -6 4 -7 15 -2 30 14 35 167 343&#xA;206 414 19 35 35 69 35 76 0 7 11 18 25 24 18 8 45 54 105 177 99 202 117 215&#xA;73 55 -19 -69 -22 -111 -9 -107 13 4 115 198 152 287 14 36 30 74 34 85 5 11&#xA;19 54 31 95 27 91 39 111 92 150 93 68 151 196 203 450 18 91 40 190 49 220&#xA;44 152 53 205 60 320 13 229 -21 443 -115 730 -23 69 -52 145 -65 170 -13 25&#xA;-33 65 -44 90 -30 61 -100 116 -116 90z"></path>
<path d="M17310 13919 c0 -5 5 -7 10 -4 6 3 10 8 10 11 0 2 -4 4 -10 4 -5 0&#xA;-10 -5 -10 -11z"></path>
<path d="M16390 13470 c-12 -8 -11 -10 8 -10 12 0 22 5 22 10 0 13 -11 13 -30&#xA;0z"></path>
<path d="M16245 13350 c-3 -5 -3 -20 1 -33 3 -14 1 -28 -5 -31 -6 -4 -11 -11&#xA;-11 -17 0 -17 21 -9 45 19 24 27 32 52 17 52 -4 0 -14 -6 -21 -12 -11 -11 -13&#xA;-9 -8 10 5 22 -7 31 -18 12z"></path>
<path d="M16340 13060 c0 -5 5 -10 10 -10 6 0 10 5 10 10 0 6 -4 10 -10 10 -5&#xA;0 -10 -4 -10 -10z"></path>
<path d="M16167 13030 c-9 -11 -13 -20 -8 -20 4 0 16 9 26 20 10 11 14 20 9&#xA;20 -5 0 -17 -9 -27 -20z"></path>
<path d="M15914 12798 c-22 -24 -76 -76 -119 -115 -43 -40 -76 -76 -73 -79 4&#xA;-3 26 12 50 34 24 22 59 47 78 57 46 24 92 63 79 67 -6 2 -1 15 11 31 37 47&#xA;17 51 -26 5z"></path>
<path d="M15515 12691 c-79 -63 -92 -78 -76 -94 9 -9 28 5 81 62 39 40 70 75&#xA;70 77 0 11 -21 -1 -75 -45z"></path>
<path d="M15330 12539 c0 -5 5 -7 10 -4 6 3 10 8 10 11 0 2 -4 4 -10 4 -5 0&#xA;-10 -5 -10 -11z"></path>
<path d="M15343 12492 c-49 -44 -57 -64 -14 -33 16 12 34 21 40 21 6 0 15 9&#xA;21 19 23 44 7 41 -47 -7z"></path>
<path d="M15194 12435 c-27 -24 -47 -46 -44 -48 9 -9 135 59 135 73 0 30 -43&#xA;19 -91 -25z"></path>
<path d="M15554 12468 c-3 -4 0 -8 5 -8 25 0 8 -28 -39 -65 -43 -34 -69 -65&#xA;-55 -65 9 0 121 89 149 119 l29 30 -42 -2 c-24 -1 -45 -5 -47 -9z"></path>
<path d="M15410 12355 c-42 -26 -64 -51 -53 -58 8 -5 99 71 92 77 -2 2 -20 -6&#xA;-39 -19z"></path>
<path d="M15385 12240 c-3 -5 -2 -10 4 -10 5 0 13 5 16 10 3 6 2 10 -4 10 -5&#xA;0 -13 -4 -16 -10z"></path>
<path d="M14925 12067 c-22 -11 -44 -27 -48 -34 -9 -15 -27 -17 -27 -4 0 5 7&#xA;17 16 26 17 17 16 29 -1 17 -19 -13 -36 -53 -30 -71 5 -17 -23 -47 -124 -131&#xA;-17 -14 -31 -32 -31 -41 0 -9 -7 -22 -15 -29 -8 -7 -12 -16 -9 -21 13 -21 228&#xA;187 302 292 16 23 17 23 -33 -4z"></path>
<path d="M13719 10643 c-13 -16 -12 -17 4 -4 9 7 17 15 17 17 0 8 -8 3 -21&#xA;-13z"></path>
<path d="M13646 10553 c-6 -14 -5 -15 5 -6 7 7 10 15 7 18 -3 3 -9 -2 -12 -12z"></path>
<path d="M13586 10005 c-44 -30 -87 -55 -97 -55 -9 0 -47 -29 -85 -63 -150&#xA;-139 -281 -250 -352 -300 -40 -28 -101 -72 -134 -97 -33 -25 -102 -74 -152&#xA;-108 -50 -35 -111 -80 -135 -100 -49 -41 -331 -257 -430 -330 -35 -26 -128&#xA;-94 -205 -152 -78 -58 -160 -118 -183 -135 -239 -171 -357 -256 -408 -295&#xA;-107 -81 -290 -217 -316 -235 -17 -11 -89 -65 -161 -120 -183 -139 -201 -154&#xA;-303 -234 -49 -39 -142 -110 -205 -158 -63 -48 -144 -113 -180 -144 -36 -30&#xA;-101 -82 -145 -114 -44 -32 -143 -109 -220 -170 -77 -62 -203 -158 -280 -215&#xA;-221 -163 -395 -314 -395 -343 0 -3 10 -7 21 -10 16 -4 60 19 163 86 78 51&#xA;150 98 161 105 35 22 119 62 132 62 7 0 10 -7 6 -16 -7 -20 12 -15 102 26 33&#xA;15 73 30 87 33 34 9 94 48 129 83 23 23 28 24 30 10 4 -14 14 -12 74 17 39 19&#xA;102 55 142 80 39 26 76 47 82 47 5 0 14 6 18 13 4 7 35 30 68 52 33 22 65 45&#xA;70 51 6 6 43 34 83 63 40 29 78 61 85 71 6 9 26 24 44 33 47 24 86 64 73 72&#xA;-6 4 -21 -2 -33 -13 -24 -22 -49 -43 -116 -97 -33 -27 -51 -35 -68 -31 -16 5&#xA;-26 1 -35 -14 -7 -11 -17 -20 -21 -20 -5 0 -19 -9 -31 -20 -11 -10 -43 -40&#xA;-71 -65 -27 -25 -76 -58 -107 -74 -31 -16 -70 -37 -85 -47 -129 -86 -161 -92&#xA;-63 -12 30 24 60 54 66 66 18 36 46 62 83 78 20 9 51 22 70 30 28 12 36 13 42&#xA;2 8 -12 11 -9 13 19 1 13 53 63 65 63 4 0 18 11 31 25 33 36 18 31 -48 -14&#xA;-31 -22 -59 -35 -60 -30 -10 27 72 109 148 149 26 14 66 41 90 60 23 19 59 47&#xA;81 61 51 35 136 105 179 149 40 40 164 124 198 134 40 13 23 -8 -42 -52 -36&#xA;-24 -71 -54 -80 -66 -8 -13 -52 -51 -98 -85 -46 -34 -89 -66 -95 -72 -22 -17&#xA;-14 -27 15 -20 51 12 166 98 279 210 67 66 115 106 119 99 4 -6 -34 -51 -90&#xA;-104 -53 -51 -96 -98 -96 -104 0 -6 -15 -24 -32 -41 -22 -20 -27 -29 -16 -29&#xA;8 0 21 7 28 15 7 8 18 15 25 15 7 0 15 6 18 14 3 7 18 17 34 20 45 12 96 38&#xA;131 68 18 15 45 30 60 34 39 8 99 41 164 91 32 24 74 50 95 57 21 7 59 25 86&#xA;40 56 32 61 20 10 -24 -83 -72 -192 -172 -261 -239 -44 -43 -94 -81 -125 -95&#xA;-29 -13 -75 -46 -104 -75 -34 -33 -61 -51 -77 -51 -39 0 -128 -38 -170 -73&#xA;-35 -30 -38 -35 -25 -54 11 -19 16 -20 38 -9 14 8 73 16 129 19 57 3 109 10&#xA;115 15 7 5 30 15 52 22 60 19 117 49 148 78 21 20 30 23 39 14 25 -25 67 -13&#xA;107 29 35 35 42 39 60 27 17 -10 23 -9 40 6 12 11 21 27 21 38 0 11 7 18 20&#xA;18 11 0 20 5 20 10 0 6 5 10 10 10 6 0 10 -7 10 -15 0 -8 5 -15 10 -15 6 0 10&#xA;6 10 14 0 12 51 51 85 65 6 2 82 77 170 166 88 89 174 169 191 178 16 8 45 33&#xA;63 54 17 21 76 83 130 138 103 105 121 130 121 165 0 14 26 48 68 89 89 89&#xA;281 304 302 339 10 15 37 45 61 68 50 46 113 131 138 184 8 19 37 60 63 89 27&#xA;30 48 61 48 68 0 8 28 44 63 82 58 63 156 180 290 345 91 112 148 203 168 267&#xA;10 32 26 70 35 84 26 40 -2 31 -90 -30z m-2278 -1957 c-3 -7 -17 -19 -31 -26&#xA;-15 -7 -27 -17 -27 -23 0 -5 -8 -9 -17 -9 -13 0 -6 10 22 35 42 36 59 43 53&#xA;23z m-1378 -1048 c0 -5 -5 -10 -11 -10 -6 0 -31 -14 -56 -30 -47 -32 -67 -36&#xA;-35 -7 15 14 87 55 100 57 1 0 2 -4 2 -10z"></path>
<path d="M22538 9750 c-32 -30 -58 -39 -58 -20 0 19 -21 10 -47 -20 -18 -22&#xA;-29 -28 -38 -20 -17 14 -102 -57 -157 -130 -23 -30 -61 -75 -84 -100 -43 -47&#xA;-144 -202 -181 -280 -146 -305 -233 -510 -233 -547 0 -11 -7 -39 -15 -64 -20&#xA;-59 -75 -340 -75 -381 0 -18 -5 -49 -10 -68 -12 -41 -16 -187 -6 -198 4 -4 14&#xA;2 22 12 13 19 14 19 14 -7 0 -14 -9 -34 -19 -44 -15 -14 -19 -33 -20 -78 -2&#xA;-121 3 -218 13 -262 19 -83 40 -21 102 302 9 50 33 137 52 195 69 208 82 245&#xA;91 265 5 11 26 63 46 115 20 52 67 156 104 230 38 74 74 152 81 172 6 21 19&#xA;44 28 50 41 31 322 482 322 517 0 6 -7 11 -15 11 -19 0 -19 9 -1 29 20 22 48&#xA;99 51 141 1 19 10 52 19 74 10 21 15 45 12 53 -3 8 7 27 24 43 51 49 31 58&#xA;-22 10z m-838 -1624 c0 -3 -4 -8 -10 -11 -5 -3 -10 -1 -10 4 0 6 5 11 10 11 6&#xA;0 10 -2 10 -4z m-13 -78 c-3 -8 -6 -5 -6 6 -1 11 2 17 5 13 3 -3 4 -12 1 -19z&#xA;m-7 -28 c0 -5 -5 -10 -11 -10 -5 0 -7 5 -4 10 3 6 8 10 11 10 2 0 4 -4 4 -10z&#xA;m-13 -52 c-3 -8 -6 -5 -6 6 -1 11 2 17 5 13 3 -3 4 -12 1 -19z"></path>
<path d="M21320 9404 c-25 -25 -70 -64 -100 -87 -77 -57 -170 -148 -248 -242&#xA;-36 -44 -84 -101 -107 -126 -67 -77 -85 -100 -85 -110 0 -5 -31 -55 -69 -112&#xA;-82 -123 -191 -298 -191 -309 0 -4 -20 -42 -46 -84 -48 -83 -84 -156 -84 -174&#xA;0 -6 -21 -50 -47 -98 -25 -47 -59 -120 -74 -162 -15 -41 -41 -111 -57 -155&#xA;-17 -44 -36 -100 -43 -125 -7 -25 -16 -49 -19 -55 -4 -5 -17 -39 -30 -75 -12&#xA;-36 -26 -69 -30 -75 -4 -5 -17 -54 -29 -107 -11 -53 -27 -112 -35 -130 -24&#xA;-56 -49 -155 -42 -167 4 -6 14 -11 22 -11 8 0 14 -4 14 -10 0 -5 -10 -9 -22&#xA;-7 -19 2 -22 -4 -25 -40 -1 -24 1 -42 5 -40 4 1 7 -2 7 -8 0 -5 -3 -9 -6 -8&#xA;-8 3 -27 -60 -39 -132 -6 -33 -12 -70 -14 -82 -3 -14 2 -27 11 -32 11 -6 13&#xA;-16 8 -40 -7 -31 -25 -43 -25 -16 0 10 -11 15 -32 16 -126 6 -168 28 -168 90&#xA;0 31 -31 62 -54 53 -20 -8 -46 12 -46 35 0 10 -12 28 -26 42 -22 21 -35 24&#xA;-115 25 -88 2 -90 2 -103 -24 -7 -15 -16 -39 -20 -54 -4 -17 -18 -34 -37 -44&#xA;-26 -13 -30 -20 -26 -42 33 -161 45 -182 171 -307 50 -49 105 -113 121 -142&#xA;30 -53 250 -303 267 -303 5 0 35 -26 67 -57 32 -32 106 -103 165 -157 95 -87&#xA;221 -228 420 -469 33 -40 105 -125 160 -191 56 -65 121 -142 146 -172 25 -29&#xA;81 -95 124 -146 43 -51 95 -117 114 -148 20 -30 67 -87 105 -127 53 -55 68&#xA;-77 64 -93 -4 -14 9 -39 39 -80 48 -65 40 -79 -24 -40 -59 36 -74 24 -67 -57&#xA;3 -26 1 -53 -3 -58 -4 -6 -26 -17 -50 -23 -23 -7 -59 -24 -79 -37 -20 -14 -45&#xA;-25 -57 -25 -12 0 -75 -16 -141 -35 -87 -25 -140 -35 -192 -35 -39 0 -84 -5&#xA;-99 -10 -26 -10 -26 -11 -9 -30 17 -19 16 -20 -29 -39 -25 -11 -46 -27 -46&#xA;-35 0 -26 -17 -26 -63 0 -32 18 -47 33 -52 53 -3 16 -16 38 -29 50 -30 28&#xA;-129 67 -193 76 -59 8 -79 0 -138 -56 -22 -20 -66 -61 -99 -91 -32 -29 -88&#xA;-89 -125 -133 -36 -44 -69 -82 -74 -83 -4 -2 -14 -17 -23 -34 -18 -35 -1 -30&#xA;30 10 20 25 394 215 407 206 4 -2 10 -17 14 -33 12 -54 197 -211 248 -211 35&#xA;0 74 35 82 73 4 17 10 36 13 42 4 5 6 19 7 30 0 11 6 20 13 19 6 -1 19 -2 28&#xA;-3 11 0 15 -7 11 -20 -4 -15 2 -20 27 -25 73 -15 184 -18 236 -6 51 11 262 37&#xA;374 45 58 4 119 47 124 88 2 16 20 42 47 65 25 21 49 51 54 65 19 49 42 30 61&#xA;-51 9 -37 23 -65 49 -91 20 -21 54 -58 76 -83 40 -44 112 -78 166 -78 12 0 43&#xA;-13 68 -29 25 -16 75 -39 111 -51 78 -27 255 -62 325 -65 28 -1 57 -5 65 -8&#xA;37 -13 59 -14 64 -2 8 21 74 1 160 -48 44 -26 83 -50 88 -55 5 -5 3 -29 -4&#xA;-56 -12 -44 -11 -50 12 -93 32 -61 126 -151 170 -163 44 -13 131 -13 163 -1&#xA;14 6 28 20 32 31 8 26 61 50 109 50 19 0 41 3 50 6 23 9 30 68 15 122 -17 62&#xA;-111 155 -202 200 -70 34 -92 38 -102 22 -3 -5 -22 -10 -42 -10 -19 0 -50 -7&#xA;-68 -15 -32 -16 -33 -15 -94 25 -76 50 -158 90 -188 90 -13 0 -33 14 -50 36&#xA;-15 21 -51 48 -83 63 -30 15 -55 33 -55 41 0 13 45 16 310 19 436 6 487 4 569&#xA;-19 109 -30 196 -28 286 5 72 26 81 27 220 23 110 -3 153 -8 177 -21 36 -19&#xA;83 -23 83 -7 0 27 -116 122 -202 165 -88 44 -93 45 -157 39 -36 -4 -77 -11&#xA;-91 -16 l-25 -10 22 -18 c42 -34 -7 -42 -59 -10 -26 16 -51 20 -116 20 -49 0&#xA;-115 8 -160 19 -43 11 -140 27 -217 35 -89 11 -145 21 -154 31 -12 12 -11 15&#xA;12 20 15 4 34 5 42 2 23 -10 115 22 154 53 20 16 54 33 76 39 62 17 246 14&#xA;290 -5 33 -13 115 -25 115 -16 0 13 -27 49 -53 71 -55 48 -81 61 -175 91 -135&#xA;44 -213 42 -367 -9 l-117 -38 -52 19 c-45 18 -58 19 -117 8 -36 -6 -89 -22&#xA;-118 -36 -29 -13 -68 -24 -85 -24 -19 0 -40 -8 -50 -19 -24 -27 -94 -33 -163&#xA;-15 -123 33 -169 43 -204 44 -38 0 -59 14 -59 41 0 38 -123 119 -181 119 -24&#xA;0 -45 13 -92 56 -34 31 -85 72 -112 91 -28 20 -63 52 -77 72 -14 20 -61 74&#xA;-103 120 -42 47 -106 123 -143 170 -36 47 -120 152 -187 232 -124 151 -170&#xA;210 -305 389 -128 170 -144 193 -175 243 -17 27 -55 81 -87 121 -31 40 -64 89&#xA;-73 107 -10 19 -41 66 -70 104 -28 39 -71 101 -94 139 -50 84 -138 201 -176&#xA;236 -53 49 -58 71 -34 152 11 40 25 93 30 118 6 25 14 54 19 65 15 38 50 150&#xA;84 280 59 220 65 238 100 310 18 39 40 86 49 105 80 181 102 227 135 285 77&#xA;135 122 218 122 225 0 8 58 101 77 125 15 19 48 70 66 105 11 19 43 67 71 105&#xA;29 39 68 95 86 125 18 30 52 78 75 105 23 28 57 73 75 100 37 55 128 166 147&#xA;178 23 15 103 127 109 154 4 16 18 49 31 74 13 26 27 64 30 85 3 22 21 73 40&#xA;114 54 117 66 149 59 165 -9 23 -18 19 -66 -31z m-300 -5494 c0 -5 -12 -10&#xA;-26 -10 -14 0 -23 4 -19 10 3 6 15 10 26 10 10 0 19 -4 19 -10z m1645 -490 c3&#xA;-5 -3 -10 -14 -10 -12 0 -21 5 -21 10 0 6 6 10 14 10 8 0 18 -4 21 -10z"></path>
<path d="M19452 8901 c-6 -3 -14 -20 -18 -36 -3 -17 -16 -40 -27 -53 -19 -21&#xA;-20 -27 -9 -80 10 -49 9 -67 -4 -117 -25 -92 -27 -103 -20 -129 4 -16 11 -23&#xA;20 -20 22 9 30 -87 23 -291 -6 -183 -23 -287 -107 -655 -31 -138 -84 -328&#xA;-105 -382 -5 -13 -2 -18 9 -18 9 0 16 5 16 10 0 6 5 10 11 10 7 0 8 -7 4 -17&#xA;-14 -39 -17 -96 -4 -119 l12 -24 14 26 c7 15 13 31 13 38 0 6 8 16 19 23 10 6&#xA;21 26 25 44 3 18 23 66 43 108 20 42 65 137 100 211 36 74 84 176 109 225 24&#xA;50 50 108 58 130 7 22 30 87 51 145 20 58 44 121 52 140 13 28 17 72 17 210&#xA;l1 175 -31 65 c-18 36 -35 87 -39 115 -8 59 -34 113 -76 157 -17 18 -44 47&#xA;-61 65 -31 34 -78 55 -96 44z m-82 -1555 c0 -3 -4 -8 -10 -11 -5 -3 -10 -1&#xA;-10 4 0 6 5 11 10 11 6 0 10 -2 10 -4z"></path>
<path d="M17791 8744 c-11 -8 -24 -35 -30 -66 -6 -29 -29 -107 -51 -173 -22&#xA;-66 -45 -135 -51 -153 -10 -30 -66 -134 -176 -322 l-44 -75 37 -31 c36 -31 36&#xA;-31 20 -62 -20 -39 -20 -37 5 -60 15 -15 20 -29 17 -58 l-3 -39 -23 43 c-12&#xA;23 -28 42 -35 42 -20 0 -57 -30 -57 -46 0 -8 -7 -17 -15 -20 -8 -4 -15 -18&#xA;-15 -34 0 -38 61 -205 155 -425 42 -99 105 -250 140 -335 35 -85 97 -234 139&#xA;-330 43 -96 86 -195 96 -220 10 -25 32 -76 49 -115 16 -38 48 -115 71 -170 67&#xA;-159 70 -166 114 -254 30 -62 50 -89 78 -107 28 -18 39 -32 44 -61 5 -33 47&#xA;-127 91 -208 18 -32 43 -52 43 -34 -1 31 -30 127 -49 163 -14 27 -17 42 -10&#xA;47 7 4 4 20 -11 48 -29 58 -22 89 9 39 13 -21 27 -38 31 -38 12 0 50 -68 50&#xA;-89 0 -27 45 -82 57 -70 6 6 17 4 32 -8 27 -22 112 -167 101 -171 -14 -5 -52&#xA;19 -78 50 -16 19 -28 25 -36 19 -6 -5 -25 -12 -43 -15 -17 -4 -36 -13 -42 -19&#xA;-11 -14 -1 -70 29 -160 20 -56 27 -167 14 -214 -8 -30 -96 -83 -137 -83 -63 0&#xA;-107 -19 -135 -59 -26 -37 -30 -39 -92 -43 -71 -5 -135 -30 -207 -78 -29 -20&#xA;-52 -29 -65 -25 -27 9 -17 28 20 39 30 10 53 36 31 36 -18 0 -191 80 -217 101&#xA;-42 33 -292 24 -292 -11 0 -4 -27 -26 -60 -50 -77 -56 -194 -189 -232 -264&#xA;-23 -46 -31 -78 -36 -138 -3 -52 -1 -78 6 -78 6 0 14 9 17 21 13 40 97 174&#xA;133 212 31 32 40 36 68 31 25 -5 54 4 133 41 121 57 133 54 124 -30 -4 -38 -2&#xA;-60 8 -71 7 -9 68 -43 134 -76 110 -55 124 -59 171 -55 71 7 108 29 185 109&#xA;60 62 73 71 127 83 33 8 86 23 119 35 34 11 94 22 139 24 43 2 102 10 129 17&#xA;54 14 115 46 115 60 0 8 -38 14 -68 10 -11 -2 -12 6 -7 31 4 18 9 36 12 41 9&#xA;14 43 7 53 -13 24 -45 76 -12 68 43 -11 64 -1 72 88 68 74 -3 82 -5 129 -40&#xA;28 -21 71 -48 98 -60 26 -13 47 -26 47 -29 0 -4 29 -24 63 -45 235 -145 244&#xA;-148 462 -147 178 2 222 -6 316 -56 25 -13 60 -18 129 -20 52 -1 114 -5 137&#xA;-9 40 -7 42 -6 69 34 23 36 25 45 15 67 -21 46 -14 62 29 74 21 6 41 14 44 18&#xA;3 5 29 20 58 34 54 27 96 36 203 44 33 3 61 7 63 9 2 2 -4 17 -13 33 -23 38&#xA;-66 64 -85 52 -22 -14 -30 -12 -30 9 0 22 -35 31 -115 31 -60 0 -109 18 -153&#xA;55 -17 14 -52 35 -79 46 -26 11 -67 30 -90 41 -52 26 -102 19 -268 -34 -173&#xA;-56 -200 -61 -295 -60 -106 1 -251 23 -349 52 -48 14 -68 16 -78 8 -7 -6 -27&#xA;-8 -43 -4 -28 5 -30 4 -24 -19 8 -31 -17 -34 -61 -7 -16 10 -41 21 -55 25 -14&#xA;4 -59 26 -100 51 -75 44 -76 44 -124 142 -28 57 -56 133 -66 179 -10 44 -42&#xA;137 -72 206 -30 69 -69 172 -87 230 -18 57 -45 140 -61 184 -66 184 -190 585&#xA;-224 721 -14 56 -42 135 -61 176 -20 41 -49 122 -64 179 -45 163 -65 211 -131&#xA;313 -45 70 -59 100 -52 109 6 6 45 37 87 67 82 59 304 276 320 314 6 12 28 45&#xA;51 72 41 49 104 148 104 162 0 4 20 30 44 57 23 28 50 64 59 80 19 39 37 133&#xA;37 202 0 50 -3 57 -37 89 -21 19 -49 37 -63 41 -14 3 -57 16 -97 29 -39 13&#xA;-79 24 -88 24 -9 0 -30 9 -45 20 -26 18 -38 20 -112 14 -87 -7 -113 -19 -129&#xA;-61 -12 -33 -53 -30 -78 6 -12 16 -21 33 -21 39 0 17 -39 59 -59 65 -11 2 -29&#xA;-1 -40 -9z m9 -1041 c0 -14 -19 -38 -25 -32 -8 8 5 39 16 39 5 0 9 -3 9 -7z&#xA;m84 -49 c22 -8 20 -18 -10 -64 -28 -43 -44 -49 -64 -25 -18 22 -4 62 28 79 33&#xA;18 27 17 46 10z m13 -3000 c4 -12 -63 -51 -72 -42 -10 10 7 40 29 48 24 10 38&#xA;8 43 -6z"></path>
<path d="M21283 7978 c-8 -29 -8 -59 -2 -91 4 -26 8 -73 8 -105 0 -31 5 -81&#xA;10 -111 6 -29 11 -55 11 -57 0 -2 -9 -4 -20 -4 -12 0 -34 -10 -50 -22 -41 -30&#xA;-48 -75 -21 -131 12 -24 21 -49 21 -56 0 -6 11 -29 25 -49 14 -20 25 -40 25&#xA;-45 0 -4 22 -40 49 -80 27 -40 63 -97 80 -127 38 -68 124 -161 171 -185 47&#xA;-24 249 -195 293 -248 82 -99 848 -857 866 -857 27 0 36 -12 103 -139 l37 -70&#xA;-26 -16 c-38 -25 -24 -55 79 -164 49 -53 94 -106 99 -118 5 -13 13 -23 19 -23&#xA;5 0 10 -6 10 -14 0 -7 18 -25 40 -40 22 -14 40 -32 40 -40 0 -25 67 -81 141&#xA;-119 l75 -38 144 0 c79 0 162 -4 185 -9 22 -5 105 -14 185 -20 80 -5 155 -12&#xA;166 -14 12 -2 64 2 115 10 52 8 103 16 114 18 12 1 26 5 32 9 6 4 18 4 27 1&#xA;18 -7 21 7 6 22 -7 7 -8 19 -1 37 11 28 21 33 37 18 5 -6 16 -4 28 5 26 19 12&#xA;32 -39 36 -30 2 -42 9 -51 26 -8 17 -13 20 -17 10 -4 -10 -6 -9 -6 2 -1 8 14&#xA;21 32 28 17 7 40 18 50 23 11 6 23 7 30 1 18 -14 56 -21 62 -12 3 4 23 6 45 3&#xA;28 -4 40 -2 40 7 0 7 11 21 25 32 14 11 25 23 25 27 0 12 -69 33 -135 41 -49&#xA;6 -72 15 -109 44 -36 27 -57 36 -86 36 -21 0 -72 4 -112 10 -40 5 -106 12&#xA;-146 14 -40 2 -79 9 -87 16 -8 6 -18 9 -24 6 -9 -6 -127 11 -241 33 -208 41&#xA;-258 54 -301 82 -25 16 -51 29 -57 29 -7 0 -18 -16 -26 -35 -18 -42 -38 -45&#xA;-61 -7 -10 15 -62 70 -115 122 -118 117 -216 229 -239 273 -9 18 -48 73 -86&#xA;121 -39 49 -106 135 -150 191 -44 57 -102 131 -130 166 -217 272 -377 480&#xA;-493 642 -13 17 -38 48 -55 67 -18 19 -42 48 -54 63 -12 15 -46 47 -75 70 -29&#xA;23 -55 44 -58 48 -13 17 -111 70 -139 75 -18 4 -35 14 -38 23 -3 9 -13 24 -22&#xA;34 -15 18 -19 42 -41 217 -5 41 -24 118 -42 170 -34 95 -34 95 -68 95 -18 0&#xA;-35 5 -37 10 -2 6 -12 25 -23 43 -28 46 -53 42 -67 -10z m2887 -2698 c0 -5 -4&#xA;-10 -10 -10 -5 0 -10 5 -10 10 0 6 5 10 10 10 6 0 10 -4 10 -10z"></path>
<path d="M10892 7610 c-23 -16 -46 -30 -50 -30 -15 0 -54 -48 -44 -54 8 -5 45&#xA;20 84 57 10 9 22 17 27 17 11 0 35 29 29 35 -3 3 -23 -8 -46 -25z"></path>
<path d="M10650 7554 c-35 -24 -99 -92 -100 -106 0 -5 9 -8 20 -8 11 0 20 4&#xA;20 9 0 4 18 20 40 35 45 30 77 73 64 86 -5 4 -24 -2 -44 -16z"></path>
<path d="M10695 7350 c-3 -5 -1 -10 4 -10 6 0 11 5 11 10 0 6 -2 10 -4 10 -3&#xA;0 -8 -4 -11 -10z"></path>
<path d="M9140 6587 c-33 -20 -52 -38 -46 -44 4 -5 84 36 91 46 12 20 -12 19&#xA;-45 -2z"></path>
<path d="M22680 5410 c-19 -4 -47 -12 -61 -18 -28 -11 -325 -9 -391 3 -26 5&#xA;-52 1 -95 -15 -134 -52 -159 -60 -175 -60 -23 0 -128 -50 -128 -61 0 -5 -28&#xA;-39 -61 -76 -60 -66 -79 -98 -93 -155 -8 -36 2 -35 44 2 18 16 54 40 79 52 46&#xA;22 134 82 165 113 21 22 108 55 143 55 32 0 52 -25 53 -66 0 -39 13 -50 93&#xA;-78 35 -12 81 -32 102 -45 48 -28 127 -45 173 -36 66 12 287 111 367 164 22&#xA;15 60 32 85 40 84 25 85 25 67 41 -33 30 -46 40 -54 40 -5 0 -30 18 -56 39&#xA;-26 22 -62 44 -80 49 -47 15 -137 21 -177 12z"></path>
<path d="M24638 5233 c-31 -15 -28 -43 4 -43 13 0 18 5 15 14 -3 7 0 19 6 25&#xA;17 17 5 19 -25 4z"></path>
<path d="M24712 5238 c3 -7 13 -15 24 -17 16 -3 17 -1 5 13 -16 19 -34 21 -29&#xA;4z"></path>
<path d="M24818 5243 c-11 -3 -18 -14 -18 -27 0 -25 -51 -57 -58 -37 -2 6 -11&#xA;11 -20 11 -14 0 -13 -2 3 -13 44 -30 84 -40 100 -27 14 12 14 15 0 30 -12 14&#xA;-13 20 -4 25 7 5 19 -2 30 -16 l18 -24 25 24 c28 27 34 46 12 38 -9 -4 -13 -1&#xA;-10 6 4 12 -43 18 -78 10z"></path>
<path d="M25102 5151 c-16 -47 5 -61 120 -81 34 -6 79 -17 98 -25 19 -7 70&#xA;-19 114 -25 64 -10 80 -9 87 1 10 16 -28 59 -69 80 -15 7 -34 18 -42 25 -32&#xA;25 -119 46 -207 49 l-92 3 -9 -27z"></path>
<path d="M24453 5096 c10 -8 27 -12 37 -9 33 9 22 23 -17 23 -34 -1 -36 -2&#xA;-20 -14z"></path>
<path d="M24572 4965 c-66 -20 -92 -41 -92 -73 0 -51 97 -116 241 -162 52 -17&#xA;109 -37 127 -46 18 -8 45 -16 60 -17 25 -2 27 1 26 38 -1 55 -36 108 -113 171&#xA;-106 88 -175 113 -249 89z"></path>
</g>
</svg>